<?xml version="1.0" encoding="UTF-8"?>
<svg width="158px" height="24px" viewBox="0 0 158 24" version="1.1" xmlns="http://www.w3.org/2000/svg" xmlns:xlink="http://www.w3.org/1999/xlink">
    <title>navara-logo.svg</title>
    <g id="navara-logo.svg" stroke="none" stroke-width="1" fill="none" fill-rule="evenodd">
        <path d="M91.1309039,2 L99.7024044,24 L97.597773,24 L94.945508,17.1611962 L85.3265817,17.1611962 L82.6452851,24 L80.5389189,24 L89.2627714,2 L91.1309039,2 Z M120.126391,2 C121.073386,2 121.9625,2.09713926 122.793632,2.29191533 C123.639248,2.4906722 124.385827,2.81658739 125.030013,3.26965983 C125.685476,3.73084742 126.199062,4.337093 126.567722,5.08389357 C126.9366,5.83233314 127.118693,6.74976959 127.118693,7.83354911 C127.118693,9.34261407 126.69581,10.6284549 125.84964,11.6768659 C125.311958,12.3426807 124.64246,12.8486828 123.845299,13.194158 L123.659075,13.2710331 L123.595683,13.2943162 L123.68567,13.3236289 C123.964039,13.4189329 124.218772,13.5323122 124.449722,13.6640153 L124.618474,13.7662321 L124.752278,13.8566786 C125.357727,14.2879781 125.812694,14.819811 126.113067,15.4501246 C126.404643,16.0631637 126.591695,16.7371315 126.67472,17.4710369 C126.738333,18.0417772 126.776624,18.609715 126.789396,19.1755267 L126.794187,19.5994974 L126.794187,20.8231158 C126.794187,21.2091164 126.81332,21.5692602 126.85155,21.9051212 C126.888322,22.2332408 126.948139,22.5365451 127.030668,22.8162776 C127.095016,23.0330257 127.177559,23.2149976 127.277463,23.3635566 L127.339482,23.4486933 L127.774886,24 L125.438559,24 L125.342705,23.8265068 C125.041524,23.2813754 124.876244,22.6476723 124.844189,21.9285999 C124.821703,21.425048 124.807651,20.9070673 124.80203,20.3748803 L124.79922,19.8379661 C124.79922,19.129335 124.770282,18.4274054 124.712262,17.7315346 C124.657332,17.0737758 124.484704,16.4885897 124.196049,15.9753803 C123.916467,15.480043 123.471275,15.078017 122.850735,14.7670847 C122.264365,14.4747242 121.427934,14.3149759 120.346041,14.2961494 L120.126391,14.2942655 L112.977896,14.2939862 L112.978171,24 L111.012404,24 L111.012404,2 L120.126391,2 Z M2.13093342,2 L14.9650087,20.8940421 L14.9652842,2 L16.9310514,2 L16.9310514,24 L14.8887273,24 L1.96549171,4.9574036 L1.96576718,24 L0,24 L0,2 L2.13093342,2 Z M38.8336735,2 L47.405174,24 L45.3010936,24 L42.6488286,17.1611962 L33.0293513,17.1611962 L30.3486229,24 L28.2416765,24 L36.9660974,2 L38.8336735,2 Z M56.957937,2 L63.9709013,21.6150331 L71.0418219,2 L73.0547338,2 L64.9385836,24 L62.9715075,24 L54.886055,2 L56.957937,2 Z M148.428499,2 L157,24 L154.895369,24 L152.243104,17.1611962 L142.624177,17.1611962 L139.942881,24 L137.836515,24 L146.560367,2 L148.428499,2 Z M37.9222824,4.48716777 L33.7059102,15.3478283 L41.9799829,15.3478283 L37.9222824,4.48716777 Z M90.2195128,4.48772625 L86.0031406,15.3478283 L94.2766624,15.3478283 L90.2195128,4.48772625 Z M147.517108,4.48772625 L143.300736,15.3478283 L151.574258,15.3478283 L147.517108,4.48772625 Z M120.126391,3.81336786 L112.977896,3.81308862 L112.977896,12.4806184 L120.126391,12.4808976 C120.863761,12.4808976 121.54466,12.3907488 122.170434,12.2106505 C122.784193,12.0340104 123.307098,11.762132 123.741643,11.3957473 C124.172923,11.0311785 124.515412,10.5650811 124.770527,9.9930521 C125.024425,9.42364452 125.152926,8.73433844 125.152926,7.92290508 C125.152926,7.17941236 125.017269,6.55103002 124.749681,6.03540988 C124.478663,5.51420602 124.119924,5.0915292 123.671837,4.76425147 C123.217244,4.4327394 122.687278,4.19200153 122.079991,4.04229194 C121.547641,3.91151512 120.993193,3.83673801 120.416557,3.81804204 L120.126391,3.81336786 Z" id="Combined-Shape" fill="#FFFFFE"></path>
    </g>
</svg>